# xmcd
#
# Track frame offsets:
#	150
#	14685
#	29290
#	41725
#	56950
#	69455
#	87160
#	103755
#	119167
#
# Disc length: 1848 seconds
#
# Revision: 0
# Processed by: cddbd v1.4PL0 Copyright (c) Steve Scherf et al.
# Submitted via: dBpowerAMP V4.0
#
DISCID=82073609
DTITLE=Pam Tillis - Super Hits
DYEAR=1999
DGENRE=Country
TTITLE0=Don't Tell Me What To Do
TTITLE1=Cleopatra, Queen Of Denial
TTITLE2=When You Walk In The Room
TTITLE3=Deep Down
TTITLE4=I Waas Blown Away
TTITLE5=Betty's Got A Bass Boat
TTITLE6=We've Tried Everything Else
TTITLE7=I've Seen Enough To Know
TTITLE8=Rough And Tumble Heart
EXTD=
EXTT0=
EXTT1=
EXTT2=
EXTT3=
EXTT4=
EXTT5=
EXTT6=
EXTT7=
EXTT8=
PLAYORDER=
